<svg width="93" height="93" viewBox="0 0 93 93" fill="none" xmlns="http://www.w3.org/2000/svg">
<path fill-rule="evenodd" clip-rule="evenodd" d="M46.5002 93.0004C72.1815 93.0004 93.0004 72.1815 93.0004 46.5002C93.0004 20.8188 72.1815 0 46.5002 0C20.8188 0 0 20.8188 0 46.5002C0 72.1815 20.8188 93.0004 46.5002 93.0004ZM51.7992 49.3464V76.1891H40.1736V49.3464H31.4545V37.4164H40.1736V30.5572C40.1736 21.4813 45.1145 16.5387 53.0053 16.5387C56.7836 16.5387 60.5183 16.8284 60.5183 16.9567V25.4863H56.1704C51.8777 25.4863 51.7992 28.5337 51.7992 31.6057V37.4164H61.2797L59.9486 49.3464H51.7992Z" fill="black"/>
</svg>
