<svg width="93" height="93" viewBox="0 0 93 93" fill="none" xmlns="http://www.w3.org/2000/svg">
<path fill-rule="evenodd" clip-rule="evenodd" d="M46.5002 93.0004C72.1815 93.0004 93.0004 72.1815 93.0004 46.5002C93.0004 20.8188 72.1815 0 46.5002 0C20.8188 0 0 20.8188 0 46.5002C0 72.1815 20.8188 93.0004 46.5002 93.0004ZM62.4854 46.3643C62.4854 55.2673 55.268 62.4846 46.365 62.4846C37.462 62.4846 30.2446 55.2673 30.2446 46.3643C30.2446 37.4612 37.462 30.2439 46.365 30.2439C55.268 30.2439 62.4854 37.4612 62.4854 46.3643ZM57.1119 46.3643C57.1119 52.2995 52.3003 57.1112 46.365 57.1112C40.4296 57.1112 35.6181 52.2995 35.6181 46.3643C35.6181 40.4289 40.4296 35.6173 46.365 35.6173C52.3003 35.6173 57.1119 40.4289 57.1119 46.3643ZM62.4854 27.5572C61.0015 27.5572 59.7987 28.7601 59.7987 30.2439C59.7987 31.7277 61.0015 32.9306 62.4854 32.9306C63.9693 32.9306 65.1721 31.7277 65.1721 30.2439C65.1721 28.7601 63.9693 27.5572 62.4854 27.5572ZM16.8106 42.603C16.8106 33.5748 16.8106 29.0606 18.5676 25.6123C20.1131 22.579 22.5792 20.1129 25.6125 18.5674C29.0608 16.8104 33.5749 16.8104 42.6032 16.8104H50.126C59.1543 16.8104 63.6685 16.8104 67.1167 18.5674C70.15 20.1129 72.6161 22.579 74.1615 25.6123C75.9187 29.0606 75.9187 33.5748 75.9187 42.603V50.1259C75.9187 59.1541 75.9187 63.6683 74.1615 67.1165C72.6161 70.1498 70.15 72.6159 67.1167 74.1614C63.6685 75.9185 59.1543 75.9185 50.1261 75.9185H50.126H42.6032H42.6031C33.5749 75.9185 29.0608 75.9185 25.6125 74.1614C22.5792 72.6159 20.1131 70.1498 18.5676 67.1165C16.8106 63.6683 16.8106 59.1541 16.8106 50.1259V42.603ZM42.6032 22.1838H50.126C54.7289 22.1838 57.8576 22.188 60.2762 22.3856C62.6322 22.5781 63.837 22.927 64.6774 23.3552C66.6994 24.3855 68.3434 26.0296 69.3738 28.0518C69.802 28.8922 70.151 30.0969 70.3434 32.4527C70.5409 34.8713 70.5452 38.0002 70.5452 42.603V50.1259C70.5452 54.7288 70.5409 57.8575 70.3434 60.2761C70.151 62.6321 69.802 63.8368 69.3738 64.6772C68.3434 66.6992 66.6994 68.3432 64.6774 69.3736C63.837 69.8019 62.6322 70.1509 60.2762 70.3432C57.8576 70.5407 54.7289 70.545 50.126 70.545H42.6032C38.0004 70.545 34.8714 70.5407 32.4529 70.3432C30.0971 70.1509 28.8924 69.8019 28.052 69.3736C26.0298 68.3432 24.3857 66.6992 23.3554 64.6772C22.9271 63.8368 22.5783 62.6321 22.3858 60.2761C22.1882 57.8575 22.184 54.7288 22.184 50.1259V42.603C22.184 38.0002 22.1882 34.8713 22.3858 32.4527C22.5783 30.0969 22.9271 28.8922 23.3554 28.0518C24.3857 26.0296 26.0298 24.3855 28.052 23.3552C28.8924 22.927 30.0971 22.5781 32.4529 22.3856C34.8714 22.188 38.0004 22.1838 42.6032 22.1838Z" fill="black"/>
</svg>
