<svg width="93" height="93" viewBox="0 0 93 93" fill="none" xmlns="http://www.w3.org/2000/svg">
<path fill-rule="evenodd" clip-rule="evenodd" d="M46.5002 93.0004C72.1815 93.0004 93.0004 72.1815 93.0004 46.5002C93.0004 20.8188 72.1815 0 46.5002 0C20.8188 0 0 20.8188 0 46.5002C0 72.1815 20.8188 93.0004 46.5002 93.0004ZM65.9759 21.2158C68.9011 23.2369 70.8983 26.0937 71.907 29.7104C73.3897 35.029 73.8184 40.9098 73.2132 47.6872C72.8703 51.5419 71.9574 54.9408 70.4141 58.0813C68.9364 61.0901 66.4752 63.334 63.1061 64.7472C59.4244 66.2871 55.5157 66.6164 52.1417 66.7987C49.3577 66.9507 46.5535 67.057 43.8099 67.1128C43.4518 67.1178 43.4518 67.1178 43.1038 67.523L42.8264 67.832C40.7939 70.0608 35.0948 75.5921 34.8477 75.8251L34.4745 76.1898H32.1746L32.1646 74.9032C32.1646 74.9032 32.1293 68.8755 32.1646 65.8008C32.1696 65.4463 32.1696 65.4108 31.746 65.2133C31.287 64.9955 30.7272 64.7979 30.1522 64.5953C29.1385 64.2356 28.0895 63.8608 27.2724 63.3442C24.0597 61.313 21.8961 58.2231 20.6554 53.8973C19.3845 49.4601 18.981 44.6733 19.4248 39.2636C19.6165 36.9234 19.9493 34.4718 20.4436 31.7568C21.4573 26.1697 24.7759 22.0415 30.3035 19.4885C33.1228 18.1867 36.2145 17.3814 40.3198 16.8748C44.7026 16.3379 49.2972 16.4443 54.3709 17.2041C58.0375 17.7562 62.2841 18.6578 65.9759 21.2158ZM56.1764 59.0336C57.6643 58.4105 58.9251 57.4481 59.7724 56.0653C60.9274 54.1658 60.9425 52.8488 59.0411 51.4457C58.5477 51.0826 58.0575 50.7139 57.567 50.345C56.8191 49.7825 56.0705 49.2195 55.309 48.675C53.3874 47.3073 51.3045 47.0693 49.8721 49.4702C49.8116 49.5745 49.7213 49.6639 49.6332 49.7511C49.6186 49.7656 49.604 49.78 49.5897 49.7944C48.8584 50.5745 47.9556 50.772 46.9974 50.3769C43.361 48.8725 40.5468 46.4462 38.8522 42.8346C37.8586 40.7123 38.131 39.6435 39.997 38.2353C40.1837 38.0935 40.3602 37.9517 40.5317 37.7946C41.3487 37.045 41.5656 36.1535 41.0864 35.1455C39.987 32.8458 38.5294 30.7943 36.6835 29.0316C36.0178 28.3883 35.2209 28.0692 34.3232 28.2718C31.9729 28.7885 29.6479 30.5056 29.5823 33.5499C29.6053 33.6884 29.6197 33.8301 29.6341 33.9715C29.664 34.2646 29.6937 34.5565 29.7992 34.8162C29.9959 35.2999 30.1861 35.7875 30.3763 36.2754C30.9271 37.6883 31.4788 39.1032 32.1948 40.4286C36.855 49.0903 43.9108 55.113 52.9032 58.9373C53.9775 59.3932 55.0871 59.4894 56.1764 59.0336ZM46.5787 32.2076C46.9974 32.1367 47.421 32.1012 47.8447 32.1012C52.0105 32.1012 55.4048 35.5102 55.4048 39.6941C55.4048 40.1247 55.3695 40.5502 55.2989 40.9655C55.1829 41.6696 55.657 42.3382 56.358 42.4547C56.4337 42.4699 56.5043 42.475 56.5749 42.475C57.1952 42.475 57.7399 42.0242 57.8458 41.391C57.9416 40.8389 57.987 40.2665 57.987 39.6941C57.987 34.0767 53.4378 29.5078 47.8447 29.5078C47.2798 29.5078 46.7099 29.5533 46.1551 29.6496C45.449 29.7661 44.9749 30.4347 45.0909 31.1388C45.212 31.8479 45.8727 32.3241 46.5787 32.2076ZM52.8225 41.1783C53.5337 41.1783 54.1137 40.5958 54.1137 39.8815C54.1137 36.3054 51.2187 33.3979 47.658 33.3979C46.9469 33.3979 46.3669 33.9804 46.3669 34.6946C46.3669 35.4089 46.9469 35.9914 47.658 35.9914C49.7914 35.9914 51.5314 37.7389 51.5314 39.8815C51.5314 40.5958 52.1114 41.1783 52.8225 41.1783ZM60.2263 43.7717C60.8164 43.7717 61.351 43.3665 61.4872 42.7637C61.7141 41.7456 61.8301 40.6971 61.8301 39.6435C61.8301 31.9087 55.5662 25.6176 47.8648 25.6176C46.8158 25.6176 45.7718 25.7341 44.7631 25.9671C44.0671 26.1241 43.6283 26.8181 43.7897 27.5171C43.9461 28.2161 44.637 28.6568 45.333 28.4947C46.1551 28.3073 47.0074 28.211 47.8648 28.211C54.1389 28.211 59.2479 33.3422 59.2479 39.6435C59.2479 40.5046 59.1521 41.3606 58.9655 42.1863C58.8091 42.8853 59.2429 43.5792 59.9389 43.7413C60.0347 43.7616 60.1305 43.7717 60.2263 43.7717Z" fill="black"/>
</svg>
