<svg width="93" height="93" viewBox="0 0 93 93" fill="none" xmlns="http://www.w3.org/2000/svg">
<path fill-rule="evenodd" clip-rule="evenodd" d="M46.5002 93.0004C72.1815 93.0004 93.0004 72.1815 93.0004 46.5002C93.0004 20.8188 72.1815 0 46.5002 0C20.8188 0 0 20.8188 0 46.5002C0 72.1815 20.8188 93.0004 46.5002 93.0004ZM58.0598 63.0767C60.3488 62.5822 63.219 60.8913 63.9411 58.8474C64.6632 56.8035 64.6631 55.0599 64.4504 54.6912C64.1628 54.1848 57.3467 51.0193 56.8104 50.8335C56.0165 50.5338 55.2584 50.6393 54.6622 51.4845C54.5489 51.6429 54.4359 51.8015 54.3234 51.9593C53.5976 52.9782 52.8978 53.9605 52.3193 54.5859C51.792 55.1494 50.9291 55.2192 50.207 54.9195C50.1284 54.8867 50.0383 54.8503 49.9373 54.8095C48.7927 54.3474 46.2539 53.3224 43.1812 50.5848C40.5926 48.2801 38.831 45.409 38.3216 44.5458C37.8175 43.6788 38.2533 43.1691 38.6527 42.7019L38.6721 42.6791C38.9578 42.3245 39.2678 41.9961 39.5667 41.6793C40.5941 40.5908 41.4911 39.6405 40.8204 38.2406C40.6633 37.9108 39.6365 35.4193 38.8272 33.4557C38.5555 32.7965 38.3084 32.1968 38.1269 31.7584C37.5097 30.2779 37.0962 30.2413 35.2207 30.2413C31.3228 30.2413 29.0937 34.7432 29.0937 38.6093C29.0937 46.2036 39.8316 57.6157 47.5645 60.8195C54.4495 63.6726 56.4928 63.4094 58.0598 63.0767ZM46.4919 16.5396H46.5069C63.0243 16.5396 76.4617 29.978 76.4617 46.5003C76.4617 63.0226 63.0243 76.4611 46.5069 76.4611C40.4159 76.4611 34.7623 74.6483 30.0255 71.5135L18.5116 75.1927L22.2447 64.0598C18.6524 59.1298 16.5401 53.0517 16.5401 46.5003C16.5401 29.978 29.9745 16.5396 46.4919 16.5396Z" fill="black"/>
</svg>
